<svg width="61" height="71" viewBox="0 0 61 71" fill="none" xmlns="http://www.w3.org/2000/svg">
<path d="M11.8887 26.6956V29.001H7.07598V31.4915H10.6771V33.7296H7.07598V38.5086H4.19846V26.6956H11.8887ZM17.6753 38.6432C16.7553 38.6432 15.9252 38.4469 15.1848 38.0543C14.4556 37.6616 13.8778 37.1007 13.4515 36.3715C13.0364 35.6423 12.8289 34.7897 12.8289 33.8137C12.8289 32.8489 13.0421 32.0019 13.4684 31.2727C13.8947 30.5323 14.478 29.9658 15.2184 29.5732C15.9588 29.1805 16.789 28.9842 17.7089 28.9842C18.6288 28.9842 19.459 29.1805 20.1994 29.5732C20.9398 29.9658 21.5232 30.5323 21.9495 31.2727C22.3758 32.0019 22.5889 32.8489 22.5889 33.8137C22.5889 34.7785 22.3702 35.6311 21.9326 36.3715C21.5063 37.1007 20.9174 37.6616 20.1657 38.0543C19.4253 38.4469 18.5952 38.6432 17.6753 38.6432ZM17.6753 36.1527C18.225 36.1527 18.6905 35.9508 19.0719 35.547C19.4646 35.1431 19.6609 34.5653 19.6609 33.8137C19.6609 33.0621 19.4702 32.4843 19.0888 32.0805C18.7186 31.6766 18.2586 31.4747 17.7089 31.4747C17.148 31.4747 16.6824 31.6766 16.3122 32.0805C15.942 32.4731 15.7569 33.0509 15.7569 33.8137C15.7569 34.5653 15.9364 35.1431 16.2954 35.547C16.6656 35.9508 17.1256 36.1527 17.6753 36.1527ZM28.3897 38.6432C27.4698 38.6432 26.6396 38.4469 25.8992 38.0543C25.17 37.6616 24.5923 37.1007 24.166 36.3715C23.7509 35.6423 23.5433 34.7897 23.5433 33.8137C23.5433 32.8489 23.7565 32.0019 24.1828 31.2727C24.6091 30.5323 25.1925 29.9658 25.9329 29.5732C26.6733 29.1805 27.5034 28.9842 28.4233 28.9842C29.3433 28.9842 30.1734 29.1805 30.9138 29.5732C31.6542 29.9658 32.2376 30.5323 32.6639 31.2727C33.0902 32.0019 33.3033 32.8489 33.3033 33.8137C33.3033 34.7785 33.0846 35.6311 32.6471 36.3715C32.2208 37.1007 31.6318 37.6616 30.8802 38.0543C30.1398 38.4469 29.3096 38.6432 28.3897 38.6432ZM28.3897 36.1527C28.9394 36.1527 29.405 35.9508 29.7864 35.547C30.179 35.1431 30.3753 34.5653 30.3753 33.8137C30.3753 33.0621 30.1846 32.4843 29.8032 32.0805C29.433 31.6766 28.973 31.4747 28.4233 31.4747C27.8624 31.4747 27.3969 31.6766 27.0267 32.0805C26.6565 32.4731 26.4713 33.0509 26.4713 33.8137C26.4713 34.5653 26.6508 35.1431 27.0098 35.547C27.38 35.9508 27.84 36.1527 28.3897 36.1527ZM34.2578 33.7969C34.2578 32.8321 34.4373 31.9851 34.7963 31.2559C35.1665 30.5267 35.6657 29.9658 36.2939 29.5732C36.9222 29.1805 37.6233 28.9842 38.3974 28.9842C39.0144 28.9842 39.5753 29.1132 40.0801 29.3712C40.5962 29.6292 41 29.977 41.2917 30.4145V26.0562H44.1692V38.5086H41.2917V37.1624C41.0225 37.6111 40.6354 37.9701 40.1306 38.2394C39.637 38.5086 39.0593 38.6432 38.3974 38.6432C37.6233 38.6432 36.9222 38.4469 36.2939 38.0543C35.6657 37.6504 35.1665 37.0839 34.7963 36.3547C34.4373 35.6143 34.2578 34.7617 34.2578 33.7969ZM41.2917 33.8137C41.2917 33.0957 41.0898 32.5292 40.6859 32.1141C40.2933 31.699 39.8109 31.4915 39.2388 31.4915C38.6666 31.4915 38.1786 31.699 37.7748 32.1141C37.3821 32.518 37.1858 33.0789 37.1858 33.7969C37.1858 34.5149 37.3821 35.087 37.7748 35.5133C38.1786 35.9284 38.6666 36.1359 39.2388 36.1359C39.8109 36.1359 40.2933 35.9284 40.6859 35.5133C41.0898 35.0982 41.2917 34.5317 41.2917 33.8137ZM47.6982 28.1428C47.1933 28.1428 46.7783 27.997 46.4529 27.7053C46.1388 27.4024 45.9817 27.0322 45.9817 26.5947C45.9817 26.1459 46.1388 25.7757 46.4529 25.4841C46.7783 25.1812 47.1933 25.0297 47.6982 25.0297C48.1918 25.0297 48.5956 25.1812 48.9097 25.4841C49.2351 25.7757 49.3977 26.1459 49.3977 26.5947C49.3977 27.0322 49.2351 27.4024 48.9097 27.7053C48.5956 27.997 48.1918 28.1428 47.6982 28.1428ZM49.1285 29.1188V38.5086H46.251V29.1188H49.1285ZM60.0651 33.6623C60.0651 33.9315 60.0483 34.212 60.0146 34.5036H53.5024C53.5472 35.087 53.7323 35.5357 54.0577 35.8498C54.3942 36.1527 54.8037 36.3042 55.2861 36.3042C56.0041 36.3042 56.5033 36.0013 56.7837 35.3955H59.8464C59.6893 36.0125 59.4032 36.5678 58.9882 37.0614C58.5843 37.555 58.0739 37.9421 57.4569 38.2225C56.8398 38.503 56.1499 38.6432 55.3871 38.6432C54.4671 38.6432 53.6482 38.4469 52.9302 38.0543C52.2123 37.6616 51.6513 37.1007 51.2475 36.3715C50.8436 35.6423 50.6417 34.7897 50.6417 33.8137C50.6417 32.8377 50.838 31.9851 51.2306 31.2559C51.6345 30.5267 52.1954 29.9658 52.9134 29.5732C53.6314 29.1805 54.4559 28.9842 55.3871 28.9842C56.2957 28.9842 57.1035 29.1749 57.8102 29.5563C58.517 29.9378 59.0667 30.4818 59.4593 31.1886C59.8632 31.8954 60.0651 32.7199 60.0651 33.6623ZM57.1203 32.905C57.1203 32.4114 56.952 32.0188 56.6155 31.7271C56.2789 31.4354 55.8582 31.2896 55.3534 31.2896C54.871 31.2896 54.4615 31.4298 54.125 31.7103C53.7997 31.9907 53.5977 32.389 53.5192 32.905H57.1203Z" fill="#D42201"/>
<path d="M59.4224 22.3491C59.4224 19.4142 58.6947 16.508 57.2808 13.7965C55.867 11.085 53.7947 8.62122 51.1822 6.54591C48.5698 4.4706 45.4684 2.82438 42.055 1.70123C38.6417 0.578077 34.9833 -1.2829e-07 31.2888 0C27.5942 1.2829e-07 23.9358 0.578078 20.5225 1.70123C17.1092 2.82438 14.0077 4.4706 11.3953 6.54591C8.78285 8.62122 6.71054 11.085 5.29669 13.7965C3.88285 16.508 3.15515 19.4142 3.15515 22.3491L31.2888 22.3491H59.4224Z" fill="#FE8331"/>
<path d="M3.29022 55.8684C3.30796 57.8194 4.06662 59.7445 5.52289 61.5338C6.97915 63.3232 9.10451 64.9417 11.7776 66.297C14.4507 67.6524 17.6192 68.718 21.1022 69.4329C24.5851 70.1479 28.3144 70.4983 32.077 70.4641C35.8396 70.4299 39.5618 70.0118 43.0312 69.2336C46.5006 68.4554 49.6492 67.3324 52.2973 65.9287C54.9453 64.525 57.0409 62.8681 58.4644 61.0526C59.8878 59.237 60.6114 57.2985 60.5937 55.3475L31.9419 55.608L3.29022 55.8684Z" fill="#FE8331"/>
<path d="M3.09896 51.0173V43.3684H4.71614V46.5243H7.99904V43.3684H9.61248V51.0173H7.99904V47.8576H4.71614V51.0173H3.09896ZM12.5518 51.1256C12.1858 51.1256 11.8596 51.0621 11.5733 50.9351C11.2869 50.8056 11.0603 50.6152 10.8935 50.3637C10.7292 50.1097 10.647 49.7935 10.647 49.415C10.647 49.0963 10.7055 48.8287 10.8226 48.6121C10.9396 48.3954 11.0989 48.2211 11.3006 48.0892C11.5023 47.9572 11.7314 47.8576 11.9878 47.7904C12.2468 47.7232 12.5182 47.6759 12.802 47.6485C13.1357 47.6136 13.4046 47.5812 13.6087 47.5514C13.8129 47.519 13.9611 47.4717 14.0532 47.4094C14.1453 47.3472 14.1914 47.2551 14.1914 47.1331V47.1107C14.1914 46.8741 14.1167 46.6911 13.9673 46.5616C13.8204 46.4322 13.6112 46.3674 13.3398 46.3674C13.0535 46.3674 12.8257 46.4309 12.6564 46.5579C12.487 46.6824 12.375 46.8393 12.3202 47.0285L10.8487 46.909C10.9234 46.5604 11.0703 46.2591 11.2894 46.0052C11.5085 45.7487 11.7911 45.552 12.1372 45.415C12.4858 45.2756 12.8892 45.2059 13.3473 45.2059C13.666 45.2059 13.971 45.2432 14.2623 45.3179C14.5561 45.3926 14.8163 45.5084 15.0429 45.6653C15.272 45.8221 15.4525 46.0238 15.5845 46.2703C15.7164 46.5143 15.7824 46.8069 15.7824 47.148V51.0173H14.2735V50.2218H14.2287C14.1366 50.401 14.0133 50.5591 13.859 50.6961C13.7046 50.8305 13.5191 50.9364 13.3025 51.0135C13.0859 51.0882 12.8356 51.1256 12.5518 51.1256ZM13.0074 50.0275C13.2415 50.0275 13.4481 49.9815 13.6274 49.8894C13.8067 49.7947 13.9474 49.6678 14.0494 49.5084C14.1515 49.3491 14.2026 49.1685 14.2026 48.9669V48.3581C14.1528 48.3905 14.0843 48.4203 13.9972 48.4477C13.9125 48.4726 13.8166 48.4963 13.7096 48.5187C13.6025 48.5386 13.4954 48.5573 13.3884 48.5747C13.2813 48.5896 13.1842 48.6033 13.0971 48.6158C12.9103 48.6432 12.7472 48.6867 12.6078 48.7465C12.4684 48.8063 12.3601 48.8872 12.2829 48.9893C12.2057 49.0889 12.1671 49.2134 12.1671 49.3627C12.1671 49.5794 12.2455 49.7449 12.4024 49.8595C12.5617 49.9715 12.7634 50.0275 13.0074 50.0275ZM17.0168 51.0173V45.2806H18.5331V46.2927H18.6003C18.7198 45.9566 18.919 45.6914 19.1979 45.4972C19.4768 45.303 19.8104 45.2059 20.1988 45.2059C20.5922 45.2059 20.9271 45.3043 21.2035 45.501C21.4799 45.6952 21.6641 45.9591 21.7562 46.2927H21.816C21.933 45.9641 22.1447 45.7014 22.4509 45.5047C22.7597 45.3055 23.1244 45.2059 23.5452 45.2059C24.0805 45.2059 24.515 45.3765 24.8487 45.7176C25.1848 46.0562 25.3529 46.5367 25.3529 47.1592V51.0173H23.7656V47.4729C23.7656 47.1542 23.6809 46.9152 23.5116 46.7558C23.3423 46.5965 23.1306 46.5168 22.8767 46.5168C22.5879 46.5168 22.3625 46.6089 22.2007 46.7932C22.0388 46.975 21.9579 47.2152 21.9579 47.514V51.0173H20.4154V47.4393C20.4154 47.158 20.3345 46.9339 20.1727 46.7671C20.0133 46.6002 19.8029 46.5168 19.5415 46.5168C19.3647 46.5168 19.2054 46.5616 19.0634 46.6513C18.924 46.7384 18.8132 46.8617 18.731 47.021C18.6489 47.1779 18.6078 47.3621 18.6078 47.5738V51.0173H17.0168ZM26.6395 51.0173V43.3684H28.2305V46.2442H28.2791C28.3488 46.0898 28.4496 45.9329 28.5816 45.7736C28.7161 45.6117 28.8904 45.4773 29.1045 45.3702C29.3211 45.2607 29.59 45.2059 29.9112 45.2059C30.3295 45.2059 30.7154 45.3155 31.069 45.5346C31.4226 45.7512 31.7052 46.0786 31.9168 46.5168C32.1284 46.9525 32.2343 47.4991 32.2343 48.1564C32.2343 48.7963 32.1309 49.3366 31.9243 49.7773C31.7201 50.2155 31.4412 50.5479 31.0877 50.7745C30.7366 50.9986 30.3432 51.1106 29.9075 51.1106C29.5987 51.1106 29.336 51.0596 29.1194 50.9575C28.9053 50.8554 28.7298 50.7272 28.5928 50.5728C28.4559 50.416 28.3513 50.2579 28.2791 50.0985H28.2081V51.0173H26.6395ZM28.1969 48.1489C28.1969 48.49 28.2442 48.7876 28.3388 49.0416C28.4335 49.2955 28.5704 49.4935 28.7497 49.6354C28.9289 49.7748 29.1468 49.8445 29.4033 49.8445C29.6622 49.8445 29.8813 49.7736 30.0606 49.6317C30.2399 49.4872 30.3756 49.2881 30.4677 49.0341C30.5623 48.7776 30.6096 48.4826 30.6096 48.1489C30.6096 47.8178 30.5636 47.5265 30.4714 47.275C30.3793 47.0235 30.2436 46.8268 30.0643 46.6849C29.8851 46.543 29.6647 46.472 29.4033 46.472C29.1443 46.472 28.9252 46.5405 28.7459 46.6774C28.5692 46.8144 28.4335 47.0086 28.3388 47.26C28.2442 47.5115 28.1969 47.8078 28.1969 48.1489ZM36.9747 48.5747V45.2806H38.5657V51.0173H37.0382V49.9753H36.9784C36.8489 50.3114 36.6336 50.5815 36.3323 50.7857C36.0335 50.9899 35.6687 51.092 35.238 51.092C34.8545 51.092 34.5172 51.0048 34.2258 50.8305C33.9345 50.6562 33.7067 50.4085 33.5424 50.0873C33.3805 49.7661 33.2984 49.3814 33.2959 48.9332V45.2806H34.8869V48.6494C34.8894 48.988 34.9803 49.2557 35.1596 49.4524C35.3388 49.6491 35.5791 49.7474 35.8804 49.7474C36.0721 49.7474 36.2514 49.7039 36.4182 49.6167C36.585 49.5271 36.7195 49.3951 36.8215 49.2208C36.9261 49.0465 36.9772 48.8312 36.9747 48.5747ZM39.8383 51.0173V45.2806H41.3808V46.2815H41.4406C41.5452 45.9255 41.7207 45.6566 41.9672 45.4748C42.2137 45.2906 42.4975 45.1984 42.8187 45.1984C42.8984 45.1984 42.9843 45.2034 43.0764 45.2134C43.1686 45.2233 43.2495 45.237 43.3192 45.2545V46.6662C43.2445 46.6438 43.1412 46.6239 43.0092 46.6065C42.8772 46.589 42.7565 46.5803 42.6469 46.5803C42.4129 46.5803 42.2037 46.6314 42.0195 46.7334C41.8377 46.833 41.6933 46.9725 41.5862 47.1517C41.4817 47.331 41.4294 47.5377 41.4294 47.7717V51.0173H39.8383ZM46.4592 53.288C45.9438 53.288 45.5019 53.2171 45.1334 53.0752C44.7674 52.9357 44.4761 52.7452 44.2594 52.5037C44.0428 52.2622 43.9021 51.9908 43.8374 51.6895L45.3089 51.4916C45.3537 51.6061 45.4247 51.7132 45.5218 51.8128C45.6189 51.9124 45.7471 51.9921 45.9065 52.0518C46.0683 52.1141 46.265 52.1452 46.4966 52.1452C46.8427 52.1452 47.1278 52.0605 47.3519 51.8912C47.5784 51.7244 47.6917 51.4443 47.6917 51.0509V50.0014H47.6245C47.5548 50.1608 47.4502 50.3114 47.3108 50.4533C47.1713 50.5952 46.9921 50.711 46.773 50.8007C46.5539 50.8903 46.2924 50.9351 45.9887 50.9351C45.5579 50.9351 45.1657 50.8355 44.8122 50.6363C44.4611 50.4346 44.181 50.1271 43.9719 49.7138C43.7652 49.298 43.6619 48.7726 43.6619 48.1377C43.6619 47.4879 43.7677 46.9451 43.9793 46.5094C44.191 46.0736 44.4723 45.7474 44.8234 45.5308C45.177 45.3142 45.5641 45.2059 45.9849 45.2059C46.3061 45.2059 46.575 45.2607 46.7916 45.3702C47.0083 45.4773 47.1825 45.6117 47.3145 45.7736C47.449 45.9329 47.5523 46.0898 47.6245 46.2442H47.6843V45.2806H49.2641V51.0733C49.2641 51.5613 49.1446 51.9697 48.9055 52.2983C48.6665 52.627 48.3354 52.8735 47.9121 53.0378C47.4913 53.2046 47.007 53.288 46.4592 53.288ZM46.4929 49.74C46.7493 49.74 46.9659 49.6765 47.1427 49.5495C47.322 49.42 47.4589 49.2358 47.5535 48.9967C47.6506 48.7552 47.6992 48.4664 47.6992 48.1303C47.6992 47.7941 47.6519 47.5028 47.5573 47.2563C47.4627 47.0073 47.3257 46.8144 47.1464 46.6774C46.9672 46.5405 46.7493 46.472 46.4929 46.472C46.2314 46.472 46.0111 46.543 45.8318 46.6849C45.6525 46.8243 45.5168 47.0185 45.4247 47.2675C45.3326 47.5165 45.2865 47.8041 45.2865 48.1303C45.2865 48.4614 45.3326 48.7478 45.4247 48.9893C45.5193 49.2283 45.655 49.4138 45.8318 49.5458C46.0111 49.6752 46.2314 49.74 46.4929 49.74ZM53.1446 51.1293C52.5545 51.1293 52.0465 51.0098 51.6208 50.7708C51.1975 50.5293 50.8713 50.1881 50.6422 49.7474C50.4132 49.3042 50.2986 48.7801 50.2986 48.1751C50.2986 47.585 50.4132 47.0671 50.6422 46.6214C50.8713 46.1757 51.1937 45.8284 51.6095 45.5794C52.0278 45.3304 52.5184 45.2059 53.0811 45.2059C53.4595 45.2059 53.8118 45.2669 54.138 45.3889C54.4667 45.5084 54.753 45.6889 54.997 45.9305C55.2435 46.172 55.4352 46.4757 55.5722 46.8417C55.7091 47.2053 55.7776 47.631 55.7776 48.1191V48.556H50.9335V47.57H54.2799C54.2799 47.341 54.2301 47.138 54.1305 46.9613C54.031 46.7845 53.8928 46.6463 53.716 46.5467C53.5417 46.4446 53.3388 46.3936 53.1072 46.3936C52.8657 46.3936 52.6516 46.4496 52.4648 46.5616C52.2806 46.6712 52.1362 46.8193 52.0316 47.0061C51.927 47.1903 51.8735 47.3957 51.871 47.6223V48.5598C51.871 48.8436 51.9233 49.0889 52.0278 49.2955C52.1349 49.5022 52.2855 49.6615 52.4798 49.7736C52.674 49.8856 52.9043 49.9416 53.1707 49.9416C53.3475 49.9416 53.5093 49.9167 53.6562 49.8669C53.8031 49.8172 53.9289 49.7425 54.0334 49.6429C54.138 49.5433 54.2177 49.4213 54.2725 49.2768L55.744 49.374C55.6693 49.7275 55.5162 50.0363 55.2846 50.3002C55.0555 50.5616 54.7592 50.7658 54.3957 50.9127C54.0347 51.0571 53.6176 51.1293 53.1446 51.1293ZM56.8159 51.0173V45.2806H58.3584V46.2815H58.4181C58.5227 45.9255 58.6982 45.6566 58.9447 45.4748C59.1912 45.2906 59.4751 45.1984 59.7963 45.1984C59.8759 45.1984 59.9618 45.2034 60.054 45.2134C60.1461 45.2233 60.227 45.237 60.2967 45.2545V46.6662C60.222 46.6438 60.1187 46.6239 59.9867 46.6065C59.8548 46.589 59.734 46.5803 59.6245 46.5803C59.3904 46.5803 59.1813 46.6314 58.997 46.7334C58.8153 46.833 58.6708 46.9725 58.5638 47.1517C58.4592 47.331 58.4069 47.5377 58.4069 47.7717V51.0173H56.8159Z" fill="#D42201"/>
</svg>
